<?xml version="1.0" encoding="utf-8"?>
<!-- Generator: Adobe Illustrator 16.0.0, SVG Export Plug-In . SVG Version: 6.00 Build 0)  -->
<!DOCTYPE svg PUBLIC "-//W3C//DTD SVG 1.1//EN" "http://www.w3.org/Graphics/SVG/1.1/DTD/svg11.dtd">
<svg version="1.1" id="Layer_1" xmlns="http://www.w3.org/2000/svg" xmlns:xlink="http://www.w3.org/1999/xlink" x="0px" y="0px"
	 width="353px" height="353px" viewBox="0 0 353 353" enable-background="new 0 0 353 353" xml:space="preserve">
<g>
	<path fill-rule="evenodd" clip-rule="evenodd" fill="#FF242F" d="M328.138,209.883c6.584,0,12.979-0.002,19.374,0.004
		c0.632,0.001,1.264,0.054,1.905,0.082c-9.363,61.193-65.101,131.237-152.709,139.916c-97.533,9.662-180.481-61.759-189.94-154.631
		C-3.125,98.133,67.096,15.921,158.065,5.047c98.264-11.747,176.929,57.779,191.524,139.142c-1.673,0.515-18.513,0.647-21.442,0.157
		c-10.954-44.464-35.928-78.533-76.178-100.721c-31.384-17.3-65.058-22.386-100.278-15.975
		C79.627,40.768,25.085,104.83,27.25,181.648c2.073,73.532,56.238,134.317,127.678,145.738
		c39.688,6.345,76.586-1.711,109.868-24.342C297.989,280.475,318.766,249.141,328.138,209.883z"/>
	<path fill-rule="evenodd" clip-rule="evenodd" d="M146.682,42.015c0,7.677,0,15.327,0,22.819
		c-44.083,15.284-72.496,44.788-81.9,90.859c-7.555,37.012,4.831,72.488,24.55,95.541c29.57-29.568,59.123-59.119,88.878-88.872
		c30.085,30.083,60.088,60.084,90.099,90.094c23.186-26.09,35.523-68.039,22.665-109.012
		c-12.472-39.741-39.524-65.363-78.946-78.483c0-7.557,0-15.202,0-22.875c39.829,8.306,86.72,42.339,101.882,99.027
		c15.007,56.112-6.743,111.479-45.007,142.614c-30.176-30.172-60.365-60.357-90.695-90.683
		c-29.971,29.969-59.821,59.816-89.661,89.653c-37.509-31.494-58.457-85.633-43.881-141.073
		C59.355,85.747,104.942,51.101,146.682,42.015z"/>
	<path fill-rule="evenodd" clip-rule="evenodd" d="M118.604,282.087c20.421-20.423,40.691-40.694,60.804-60.809
		c20.086,20.089,40.354,40.359,60.756,60.765c-19.08,11.026-39.791,16.509-62.022,16.302
		C156.765,298.146,136.873,292.626,118.604,282.087z"/>
</g>
</svg>
