<?xml version="1.0" encoding="utf-8"?>
<!-- Generator: Adobe Illustrator 16.0.0, SVG Export Plug-In . SVG Version: 6.00 Build 0)  -->
<!DOCTYPE svg PUBLIC "-//W3C//DTD SVG 1.1//EN" "http://www.w3.org/Graphics/SVG/1.1/DTD/svg11.dtd">
<svg version="1.1" id="Layer_1" xmlns="http://www.w3.org/2000/svg" xmlns:xlink="http://www.w3.org/1999/xlink" x="0px" y="0px"
	 width="341px" height="269.742px" viewBox="0 0 341 269.742" enable-background="new 0 0 341 269.742" xml:space="preserve">
<g>
	<path fill-rule="evenodd" clip-rule="evenodd" fill="#DA261D" d="M241.702,230.082c-5.168,4.199-10.858,7.596-16.758,10.622
		c-18.969,9.732-39.156,14.044-60.417,12.917c-22.201-1.176-42.513-8.138-60.865-20.737c-1.05-0.721-2.136-1.39-3.206-2.083
		c-6.629-5.096-12.852-10.633-18.384-16.923c-0.198-0.225-0.526-0.336-0.793-0.499c-0.013-0.904-0.723-1.393-1.221-1.991
		C66.188,194.721,57.37,175.7,53.971,154.296c-9.164-57.718,24.304-111.54,77.252-130.418c18.652-6.65,37.816-8.386,57.407-5.432
		c42.66,6.434,78.929,36.073,93.386,76.352c0.266,0.74,0.671,1.446,0.65,2.281c-0.658,0.467-1.394,0.258-2.078,0.259
		c-8.719,0.017-17.438-0.038-26.156,0.054c-1.688,0.018-2.493-0.56-3.253-2.031c-12.324-23.876-31.382-39.642-57.325-46.708
		c-32.747-8.919-68.149,1.901-90.371,27.421c-16.58,19.04-23.926,41.285-22.152,66.415c1.23,17.426,7.371,33.125,17.876,47.095
		c0.518,0.688,0.921,1.514,1.775,1.9c0.024,0.512,0.313,0.88,0.628,1.254c2.837,3.366,5.811,6.613,9.127,9.504
		c2.943,2.565,5.837,5.225,9.29,7.138c0.444,0.338,0.869,0.703,1.334,1.008c13.454,8.79,28.174,13.745,44.244,14.665
		c15.891,0.91,30.955-2.169,45.234-9.187c4.092-2.011,7.883-4.522,11.773-6.869c0.566,0.181,0.904,0.645,1.275,1.056
		c4.978,5.513,9.968,11.015,14.907,16.562C239.797,227.737,241.037,228.674,241.702,230.082z"/>
	<path fill-rule="evenodd" clip-rule="evenodd" fill="#201B19" d="M241.702,230.082c-0.665-1.408-1.905-2.345-2.906-3.469
		c-4.939-5.547-9.93-11.049-14.907-16.562c-0.371-0.411-0.709-0.875-1.275-1.055c-0.231-0.907-0.968-1.45-1.549-2.093
		c-15.813-17.479-31.635-34.951-47.455-52.423c-0.376-0.415-0.76-0.821-1.134-1.237c-0.418-0.463-0.81-0.397-1.2,0.037
		c-0.375,0.415-0.761,0.82-1.138,1.233c-7.539,8.264-15.073,16.532-22.617,24.791c-9.16,10.029-18.329,20.05-27.493,30.073
		c-3.453-1.913-6.347-4.572-9.29-7.138c-3.316-2.891-6.29-6.138-9.127-9.504c-0.315-0.374-0.604-0.742-0.628-1.254
		c10.315-11.356,20.637-22.706,30.944-34.07c12.832-14.147,25.651-28.306,38.477-42.458c0.426-0.469,0.872-0.919,1.298-1.368
		c0.951,0.175,1.307,0.968,1.82,1.535c22.119,24.389,44.225,48.791,66.336,73.187c0.642,0.708,1.323,1.381,1.987,2.069
		c4.101,4.957,8.529,9.62,12.876,14.354c2.141,2.33,4.006,4.93,6.508,6.921c0.712,1.274,1.813,2.226,2.772,3.29
		c4.226,4.691,8.478,9.36,12.725,14.043c50.076-52.427,51.649-152.336-21.383-207.265c-0.111-0.665,0.444-0.972,0.793-1.359
		c4.927-5.464,9.865-10.917,14.81-16.365c1.158-1.276,1.184-1.274,2.634-0.139c19.558,15.32,35.064,33.978,46.301,56.162
		c8.639,17.054,14.159,35.079,16.548,54.025c6.766,53.673-12.13,107.096-52.252,144.015c-2.998,2.759-6.081,5.413-9.24,7.929
		c-0.96-0.373-1.412-1.172-1.991-1.811c-9.779-10.78-19.541-21.575-29.319-32.355C243.046,231.184,242.608,230.368,241.702,230.082z
		"/>
	<path fill-rule="evenodd" clip-rule="evenodd" fill="#201B19" d="M81.28,213.379c0.267,0.163,0.595,0.274,0.793,0.499
		c5.532,6.29,11.754,11.827,18.384,16.923c-6.016,6.634-12.026,13.273-18.05,19.901c-4.358,4.794-8.734,9.572-13.104,14.357
		c-0.48,0.526-0.963,1.05-1.543,1.683c-2.906-2.153-5.559-4.428-8.157-6.762C34.263,237.222,17.317,209.35,8.939,176.34
		c-4.339-17.095-5.853-34.476-4.648-52.096c1.924-28.148,10.312-54.188,25.345-78.057C40.231,29.363,53.548,15.005,69.316,2.91
		c1.487-1.141,1.503-1.138,2.795,0.285c4.784,5.272,9.563,10.549,14.34,15.829c0.425,0.47,0.821,0.968,1.268,1.498
		C49.207,50.282,28.977,89.214,29.374,138.057c0.286,35.169,13.002,65.768,36.331,92.375
		C70.97,224.667,76.125,219.022,81.28,213.379z"/>
	<path fill-rule="evenodd" clip-rule="evenodd" fill="#DA261D" d="M261.229,211.652c-2.502-1.991-4.367-4.591-6.508-6.921
		c-4.347-4.733-8.775-9.396-12.876-14.354c3.786-4.768,6.964-9.923,9.621-15.391c0.528-1.087,1.135-1.513,2.352-1.507
		c9.26,0.046,18.52,0.024,27.78,0.03c0.312,0,0.624,0.063,0.879,0.091c0.352,0.445,0.133,0.804,0.006,1.165
		c-4.674,13.315-11.566,25.372-20.569,36.229C261.712,211.237,261.458,211.435,261.229,211.652z"/>
	<path fill-rule="evenodd" clip-rule="evenodd" fill="#FFFFFF" d="M120.027,209.379c9.165-10.023,18.333-20.044,27.493-30.073
		c7.544-8.259,15.079-16.527,22.617-24.791c0.377-0.413,0.763-0.818,1.138-1.233c0.391-0.435,0.782-0.5,1.2-0.037
		c0.374,0.416,0.758,0.822,1.134,1.237c15.82,17.472,31.642,34.943,47.455,52.423c0.581,0.643,1.317,1.186,1.549,2.093
		c-3.891,2.346-7.682,4.857-11.773,6.868c-14.279,7.018-29.344,10.097-45.234,9.187c-16.07-0.92-30.79-5.875-44.244-14.665
		C120.896,210.082,120.471,209.717,120.027,209.379z"/>
</g>
</svg>
